Coordinates
version=1
nRows=11
nColumns=40
inDegrees=yes

Units are S.I. units (second, meters, Newtons, ...)
Angles are in degrees.

endheader
time	pelvis_tilt	pelvis_list	pelvis_rotation	pelvis_tx	pelvis_ty	pelvis_tz	hip_flexion_r	hip_adduction_r	hip_rotation_r	knee_angle_r	knee_angle_r_beta	ankle_angle_r	subtalar_angle_r	mtp_angle_r	hip_flexion_l	hip_adduction_l	hip_rotation_l	knee_angle_l	knee_angle_l_beta	ankle_angle_l	subtalar_angle_l	mtp_angle_l	lumbar_extension	lumbar_bending	lumbar_rotation	arm_flex_r	arm_add_r	arm_rot_r	elbow_flex_r	pro_sup_r	wrist_flex_r	wrist_dev_r	arm_flex_l	arm_add_l	arm_rot_l	elbow_flex_l	pro_sup_l	wrist_flex_l	wrist_dev_l
     40.95500000	     -4.94176426	     -3.99099100	     -2.28912319	      0.90500604	      0.92435189	      0.45758479	     21.63539217	      1.11944182	     -9.84997912	     21.43595606	     21.43595606	      6.61931306	     -4.82683950	     -0.68059516	      0.40580284	     -7.46804086	    -12.22154377	     23.31565472	     23.31565472	     19.27610523	     -2.51002408	     -4.95380637	     -8.01059288	      2.66600080	     -0.51374874	     -9.30252918	    -15.39977182	     -3.99004808	     38.70816220	     45.94459913	      0.00000000	      0.00000000	     11.91843584	    -11.66712577	    -17.02879028	     49.48923040	     47.12594744	      0.00000000	      0.00000000
     40.96828571	     -4.99149580	     -4.12064977	     -2.08737125	      0.90582448	      0.92473633	      0.46027371	     21.12877362	      1.36386055	    -10.13836753	     21.42526177	     21.42526177	      7.06899590	     -4.67701977	     -0.67569500	      1.26400069	     -8.13221279	    -11.71829758	     25.57686801	     25.57686801	     18.09100100	     -3.51146405	     -7.04109144	     -7.98407113	      2.82552048	     -0.54816889	     -8.65434214	    -15.67523146	     -2.81606604	     41.85378601	     45.74831138	      0.00000000	      0.00000000	     11.53699950	    -11.48151930	    -16.56764639	     46.48145275	     47.02616228	      0.00000000	      0.00000000
     40.98157143	     -4.97644355	     -4.31059202	     -1.86413499	      0.90653658	      0.92510725	      0.46296217	     20.50820925	      1.68413393	    -10.45156303	     21.32265092	     21.32265092	      7.46879600	     -4.55341895	     -0.78849414	      2.37066114	     -8.92409021	    -11.09359557	     28.44580468	     28.44580468	     17.34401930	     -4.33989686	     -7.80240756	     -8.07024085	      2.99710401	     -0.75648727	     -7.15929818	    -15.57090857	     -2.81871888	     43.11553964	     45.70847623	      0.00000000	      0.00000000	     10.55038889	    -11.30630442	    -16.37997649	     45.09696943	     46.98190868	      0.00000000	      0.00000000
     40.99485714	     -5.04617209	     -4.38348515	     -1.64976697	      0.90714855	      0.92523741	      0.46550732	     20.02906209	      1.88393457	    -10.65462714	     21.28951071	     21.28951071	      7.92154065	     -4.46675892	     -0.80577384	      3.61934869	     -9.53124816	    -10.29842100	     31.17428002	     31.17428002	     14.96093816	     -6.13675994	    -11.74103687	     -7.95635103	      3.12082407	     -0.52685609	     -7.12346352	    -16.21007120	     -1.31625292	     47.81938802	     45.45601347	      0.00000000	      0.00000000	     10.97231693	    -11.00174298	    -15.66113529	     40.10227310	     46.85846474	      0.00000000	      0.00000000
     41.00814286	     -5.05374607	     -4.50148305	     -1.44504662	      0.90756034	      0.92530786	      0.46805371	     19.51705200	      2.13420528	    -10.85146487	     21.29594729	     21.29594729	      8.35802544	     -4.43592400	     -0.90656815	      5.10377630	    -10.20168298	     -9.37166136	     34.41585658	     34.41585658	     12.63556155	     -8.02306596	    -14.71403107	     -8.00168982	      3.25450189	     -0.41710744	     -6.38103600	    -16.56242798	     -0.84518442	     51.12297986	     45.32611150	      0.00000000	      0.00000000	     10.60188896	    -10.75660776	    -15.04181719	     37.31444838	     46.75265760	      0.00000000	      0.00000000
     41.02142857	     -5.09243365	     -4.64358700	     -1.21415440	      0.90780479	      0.92524923	      0.47052514	     19.03488226	      2.41418373	    -11.03605336	     21.26307295	     21.26307295	      8.76827221	     -4.46244698	     -1.02756416	      6.94800947	    -10.92336548	     -8.36691320	     38.22388467	     38.22388467	     10.95321034	     -9.26838423	    -15.41158238	     -7.98440769	      3.37340632	     -0.71839913	     -4.77890799	    -16.52583991	     -0.94145381	     52.84210095	     45.27891393	      0.00000000	      0.00000000	      9.52832212	    -10.60484420	    -14.82275026	     35.81078305	     46.70320487	      0.00000000	      0.00000000
     41.03471429	     -5.01975167	     -4.69887244	     -0.99503622	      0.90792985	      0.92523024	      0.47275986	     18.51886076	      2.59062746	    -11.11357653	     21.37061766	     21.37061766	      9.24865890	     -4.58321718	     -1.14886176	      8.71554632	    -11.35585433	     -7.05375748	     41.87444322	     41.87444322	      8.15376217	    -11.61999056	    -17.36814235	     -8.12952493	      3.44852226	     -0.45115890	     -4.32150572	    -17.32707281	      0.17745080	     57.38878286	     45.08719661	      0.00000000	      0.00000000	      9.58607145	    -10.31241833	    -14.03841521	     32.23371946	     46.58965967	      0.00000000	      0.00000000
     41.04800000	     -5.04106647	     -4.78440462	     -0.75510565	      0.90780230	      0.92503485	      0.47492305	     18.09773559	      2.80184775	    -11.19419550	     21.42514747	     21.42514747	      9.66698766	     -4.72909489	     -1.27324487	     10.84148939	    -11.82636405	     -5.77516570	     45.87837992	     45.87837992	      6.01594944	    -12.98049153	    -17.23435111	     -8.17360691	      3.48213141	     -0.75873625	     -2.61312633	    -17.32637957	      0.04917963	     59.47437076	     45.03328164	      0.00000000	      0.00000000	      8.55175033	    -10.14570386	    -13.77861014	     30.75595094	     46.53572853	      0.00000000	      0.00000000
     41.06128571	     -4.99428294	     -4.83658984	     -0.49796410	      0.90757843	      0.92486459	      0.47680545	     17.63141791	      2.95453916	    -11.27234134	     21.52541053	     21.52541053	     10.13945815	     -4.92294235	     -1.40989231	     12.98668400	    -12.07307864	     -4.32805061	     49.84090314	     49.84090314	      3.89756348	    -14.42626033	    -16.31166329	     -8.24981585	      3.52412671	     -0.93012343	     -1.09030337	    -17.58668627	      0.28411406	     62.23728586	     44.94311042	      0.00000000	      0.00000000	      7.70462033	     -9.91323209	    -13.42472729	     29.06693926	     46.47193906	      0.00000000	      0.00000000
     41.07457143	     -4.91290550	     -4.88025207	     -0.24254882	      0.90718267	      0.92471121	      0.47843340	     17.13546920	      3.08227594	    -11.37282331	     21.61426593	     21.61426593	     10.63057271	     -5.02390348	     -1.53132574	     15.21455904	    -12.19788079	     -2.90577421	     53.84506195	     53.84506195	      2.80759382	    -14.93398456	    -12.90758798	     -8.45119993	      3.62570053	     -0.48571206	     -0.40197444	    -18.59908348	      1.29091307	     66.61721363	     44.79290207	      0.00000000	      0.00000000	      7.52497689	     -9.50566660	    -12.47150895	     26.59190035	     46.33342340	      0.00000000	      0.00000000
     41.08785714	     -4.87764665	     -4.88201548	      0.03178979	      0.90660893	      0.92458897	      0.47984041	     16.68535121	      3.15270584	    -11.47796145	     21.66908058	     21.66908058	     11.08779489	     -5.12865833	     -1.63513565	     17.50921958	    -12.11309207	     -1.47540258	     57.55975095	     57.55975095	      2.05212076	    -15.38275587	     -8.71047233	     -8.58551036	      3.62799006	     -0.41826622	      1.00930200	    -19.10208447	      1.56004221	     69.66573046	     44.72273582	      0.00000000	      0.00000000	      6.70606340	     -9.22123462	    -11.75951621	     25.32190528	     46.21636305	      0.00000000	      0.00000000
